<?xml version="1.0" standalone="no"?>
<!DOCTYPE svg PUBLIC "-//W3C//DTD SVG 20010904//EN"
 "http://www.w3.org/TR/2001/REC-SVG-20010904/DTD/svg10.dtd">
<svg version="1.0" xmlns="http://www.w3.org/2000/svg"
 width="500.000000pt" height="500.000000pt" viewBox="0 0 500.000000 500.000000"
 preserveAspectRatio="xMidYMid meet">

<g transform="translate(0.000000,500.000000) scale(0.100000,-0.100000)"
fill="#7703fc" stroke="none">
<path d="M700 4260 l0 -350 1413 1 1412 0 280 324 c183 212 281 332 283 349
l3 26 -1695 0 -1696 0 0 -350z"/>
<path d="M3941 3924 l-351 -405 0 -518 0 -517 355 -348 355 -348 0 1271 c0
699 -2 1271 -4 1271 -1 0 -161 -183 -355 -406z"/>
<path d="M700 1939 l0 -1274 24 25 c13 14 173 197 355 408 l331 383 0 518 0
517 -355 348 -355 348 0 -1273z"/>
<path d="M1410 2865 l0 -345 453 0 452 1 265 305 c146 168 280 323 298 344
l34 40 -751 0 -751 0 0 -345z"/>
<path d="M2420 2174 c-146 -168 -280 -323 -298 -344 l-34 -40 751 0 751 0 0
345 0 345 -452 0 -453 -1 -265 -305z"/>
<path d="M1195 766 c-187 -216 -281 -332 -283 -350 l-3 -26 1695 0 1696 0 0
350 0 350 -1412 -1 -1413 0 -280 -323z"/>
</g>
</svg>
